<svg width="135" height="56" viewBox="0 0 135 56" fill="none" xmlns="http://www.w3.org/2000/svg">
<g clip-path="url(#clip0_21_17)">
<path d="M70.9422 37.2485C69.7669 37.2485 68.6754 37.0788 67.668 36.7394C66.6605 36.4 65.821 35.806 65.0654 35.1273C64.3098 34.4485 63.806 33.5151 63.3863 32.4121C62.9665 31.3091 62.7986 30.0364 62.7986 28.5939V27.9151C62.7986 26.5576 63.0504 25.3697 63.4702 24.2667C63.89 23.2485 64.4777 22.3151 65.2333 21.6363C65.9889 20.9576 66.8284 20.3636 67.8359 20.0242C68.8434 19.6848 69.9348 19.5151 71.0262 19.5151C72.2016 19.5151 73.293 19.6848 74.1325 20.0242C75.056 20.3636 75.8116 20.7879 76.3993 21.297C77.071 21.8909 77.4907 22.4848 77.9105 23.2485C78.2463 24.0121 78.4982 24.7757 78.5822 25.6242H74.3004C74.0486 24.8606 73.7128 24.1818 73.209 23.7576C72.7053 23.3333 71.9497 23.0788 71.0262 23.0788C70.4385 23.0788 69.9348 23.1636 69.515 23.3333C69.0113 23.503 68.5915 23.8424 68.2557 24.1818C67.9199 24.606 67.584 25.1151 67.4161 25.7091C67.1643 26.303 67.0803 26.9818 67.0803 27.8303V28.5091C67.0803 29.4424 67.1643 30.206 67.4161 30.8C67.584 31.4788 67.9199 31.9879 68.2557 32.4121C68.5915 32.8363 69.0113 33.1757 69.515 33.3454C70.0187 33.5151 70.5225 33.6 71.1101 33.6C71.9497 33.6 72.7053 33.3454 73.293 32.9212C73.8807 32.497 74.3004 31.903 74.4684 31.0545H78.7501C78.6661 31.9879 78.4143 32.8363 77.9945 33.6C77.5747 34.3636 77.071 35.0424 76.3993 35.5515C75.7277 36.0606 74.9721 36.4848 74.1325 36.8242C73.0411 37.0788 72.0337 37.2485 70.9422 37.2485Z" fill="white"/>
<path d="M87.1455 37.0788C86.138 37.0788 85.2985 36.994 84.6269 36.8243C83.9552 36.6546 83.3675 36.3152 82.8638 35.8909C82.444 35.4667 82.1082 34.7879 81.8563 34.0243C81.6045 33.2606 81.5205 32.3273 81.5205 31.1394V14.4243H85.7183V30.6303C85.7183 31.1394 85.7183 31.6485 85.8022 31.9879C85.8862 32.3273 85.9701 32.6667 86.138 32.8364C86.306 33.0909 86.5578 33.2606 86.8097 33.3455C87.1455 33.4303 87.4813 33.5152 87.9011 33.5152C88.153 33.5152 88.4048 33.5152 88.5727 33.5152C88.7407 33.5152 88.9086 33.5152 89.0765 33.4303V36.9939C88.9086 36.9939 88.8246 37.0788 88.6567 37.0788C88.4888 37.0788 88.3209 37.0788 88.153 37.1636C87.9851 37.1636 87.8172 37.1636 87.5653 37.1636L87.1455 37.0788Z" fill="white"/>
<path d="M92.183 19.8545H96.3807V36.8242H92.183V19.8545ZM94.2818 18.0727C93.5262 18.0727 92.8546 17.8182 92.4348 17.3939C92.015 16.9697 91.7632 16.3757 91.7632 15.697C91.7632 15.0182 92.015 14.4242 92.4348 14C92.8546 13.5757 93.5262 13.3212 94.2818 13.3212C95.0374 13.3212 95.7091 13.5757 96.1289 14C96.5486 14.4242 96.8005 15.0182 96.8005 15.697C96.8005 16.3757 96.5486 16.9697 96.1289 17.3939C95.7091 17.8182 95.1214 18.0727 94.2818 18.0727Z" fill="white"/>
<path d="M107.966 37.2485C106.791 37.2485 105.7 37.0788 104.692 36.7394C103.685 36.4 102.845 35.806 102.09 35.1273C101.334 34.4485 100.83 33.5151 100.41 32.4121C99.9907 31.3091 99.8228 30.0364 99.8228 28.5939V27.9151C99.8228 26.5576 100.075 25.3697 100.494 24.2667C100.914 23.2485 101.502 22.3151 102.257 21.6363C103.013 20.9576 103.853 20.3636 104.86 20.0242C105.868 19.6848 106.959 19.5151 108.05 19.5151C109.226 19.5151 110.317 19.6848 111.157 20.0242C112.08 20.3636 112.836 20.7879 113.424 21.297C114.095 21.8909 114.515 22.4848 114.935 23.2485C115.271 24.0121 115.522 24.7757 115.606 25.6242H111.325C111.073 24.8606 110.737 24.1818 110.233 23.7576C109.729 23.3333 108.974 23.0788 108.05 23.0788C107.463 23.0788 106.959 23.1636 106.539 23.3333C106.035 23.503 105.616 23.8424 105.28 24.1818C104.944 24.606 104.608 25.1151 104.44 25.7091C104.188 26.303 104.104 26.9818 104.104 27.8303V28.5091C104.104 29.4424 104.188 30.206 104.44 30.8C104.608 31.4788 104.944 31.9879 105.28 32.4121C105.616 32.8363 106.035 33.1757 106.539 33.3454C107.043 33.5151 107.547 33.6 108.134 33.6C108.974 33.6 109.729 33.3454 110.317 32.9212C110.905 32.497 111.325 31.903 111.493 31.0545H115.774C115.69 31.9879 115.438 32.8363 115.019 33.6C114.599 34.3636 114.095 35.0424 113.424 35.5515C112.752 36.0606 111.996 36.4848 111.157 36.8242C110.065 37.0788 109.058 37.2485 107.966 37.2485Z" fill="white"/>
<path d="M118.461 36.9091V14.4243H122.659V26.8121L128.871 19.8546H133.657L127.444 26.9818L134.328 36.9091H129.375L124.59 29.9515L122.659 31.9879V36.9091H118.461Z" fill="white"/>
<path fill-rule="evenodd" clip-rule="evenodd" d="M9.23507 9.50304C3.10634 15.697 0 21.6364 0 27.6606V27.7455C0 33.6849 3.10634 39.6242 9.23507 45.903C15.4478 52.1818 21.3246 55.2364 27.2015 55.2364H27.2854C33.1623 55.2364 39.1231 52.097 45.2519 45.903C57.5933 33.4303 57.6772 22.0606 45.2519 9.50304C39.0392 3.22425 33.1623 0.169705 27.2015 0.169705C21.3246 0.0848561 15.4478 3.22425 9.23507 9.50304ZM17.4627 37.5879C10.6623 30.7152 10.7463 24.5212 17.4627 17.7333C24.1791 10.9455 30.3078 10.8606 37.1082 17.7333C43.9086 24.6061 43.8246 30.8 37.1082 37.5879C33.75 40.9818 30.5597 42.6788 27.2854 42.6788C24.0951 42.6788 20.8209 40.9818 17.4627 37.5879Z" fill="url(#paint0_linear_21_17)"/>
</g>
<defs>
<linearGradient id="paint0_linear_21_17" x1="9.0682" y1="46.9772" x2="44.2517" y2="10.468" gradientUnits="userSpaceOnUse">
<stop stop-color="#0073FF"/>
<stop offset="1" stop-color="#00DEFF"/>
</linearGradient>
<clipPath id="clip0_21_17">
<rect width="135" height="56" fill="white"/>
</clipPath>
</defs>
</svg>
